<?xml version="1.0" encoding="UTF-8"?>
<svg id="Ebene_1" data-name="Ebene 1" xmlns="http://www.w3.org/2000/svg" xmlns:xlink="http://www.w3.org/1999/xlink" viewBox="0 0 595.28 841.89">
  <defs>
    <style>
      .cls-1, .cls-2 {
        fill: #fff;
      }

      .cls-3 {
        fill: #96835c;
      }

      .cls-3, .cls-4, .cls-2, .cls-5 {
        stroke-width: 0px;
      }

      .cls-4 {
        fill: #b5aa80;
      }

      .cls-6 {
        clip-path: url(#clippath);
      }

      .cls-5 {
        fill: url(#Orange_Gelb);
      }
    </style>
    <clipPath id="clippath">
      <path class="cls-2" d="m306.52,668.37c-.67,0-1.32-.1-1.94-.3-.36.06-.72.09-1.09.09-1.21,0-2.43-.34-3.52-1.03l-186.68-120.18c-.88-.57-1.59-1.32-2.1-2.19-1.52-1.22-2.42-3.07-2.43-5.03l-1.15-206.93c0-1.09.26-2.12.73-3.03-.55-1.74-.35-3.64.57-5.23.85-1.46,2.23-2.52,3.83-2.98.53-.84,1.26-1.56,2.15-2.1l186.18-111.6c1.03-.62,2.18-.92,3.34-.92.38,0,.76.03,1.14.1.38-.07.76-.1,1.14-.1,1.16,0,2.31.31,3.34.92l186.18,111.6c.9.54,1.62,1.26,2.15,2.1,1.6.46,2.98,1.52,3.83,2.98.92,1.59,1.13,3.49.57,5.23.47.91.74,1.95.73,3.03l-1.15,206.93c-.01,1.96-.91,3.81-2.43,5.03-.51.87-1.22,1.63-2.1,2.19l-182.94,117.77c-.97.62-2.05.96-3.14,1.02l-.06.08c-1.22,1.59-3.1,2.53-5.11,2.54h-.05Z"/>
    </clipPath>
    <linearGradient id="Orange_Gelb" data-name="Orange, Gelb" x1="197.94" y1="393.9" x2="457.71" y2="502.6" gradientUnits="userSpaceOnUse">
      <stop offset="0" stop-color="#ffef26"/>
      <stop offset=".02" stop-color="#fee921"/>
      <stop offset=".1" stop-color="#fdd70e"/>
      <stop offset=".19" stop-color="#fdcb03"/>
      <stop offset=".28" stop-color="#fdc800"/>
      <stop offset=".67" stop-color="#f18f34"/>
      <stop offset=".89" stop-color="#e95f32"/>
      <stop offset="1" stop-color="#e3312d"/>
    </linearGradient>
  </defs>
  <path class="cls-3" d="m491.33,647.51s-8.47,50.82-62.12,43.76c-53.65-7.06-63.53-32.47-63.53-32.47l-62.12,27.53s36.77,55.06,75.59,63.53c38.82,8.47,71.23,3.53,99.46-9.18s26.82-20.47,26.82-20.47c0,0,26.82-35.29,9.88-57.18-16.94-21.88-24-15.53-24-15.53Z"/>
  <path class="cls-3" d="m216.74,624.1c-2.82-2.12-74.82-49.41-60-93.88s94.59-65.65,94.59-65.65l-68.47-57.88s-77.65,47.29-84,114.35,38.12,96.71,44.47,102.35c6.35,5.65,73.41.71,73.41.71Z"/>
  <path class="cls-3" d="m487.55,291.56s30.82,30.82,14.01,59.77c-16.81,28.95-100.87,41.09-100.87,41.09l49.5,63.51s73.78-24.28,90.59-45.76,15.88-27.08,15.88-27.08c0,0,4.67-50.43-18.68-68.18-23.35-17.74-50.43-23.35-50.43-23.35Z"/>
  <g>
    <path class="cls-1" d="m306.52,668.37c-.67,0-1.32-.1-1.94-.3-.36.06-.72.09-1.09.09-1.21,0-2.43-.34-3.52-1.03l-186.68-120.18c-.88-.57-1.59-1.32-2.1-2.19-1.52-1.22-2.42-3.07-2.43-5.03l-1.15-206.93c0-1.09.26-2.12.73-3.03-.55-1.74-.35-3.64.57-5.23.85-1.46,2.23-2.52,3.83-2.98.53-.84,1.26-1.56,2.15-2.1l186.18-111.6c1.03-.62,2.18-.92,3.34-.92.38,0,.76.03,1.14.1.38-.07.76-.1,1.14-.1,1.16,0,2.31.31,3.34.92l186.18,111.6c.9.54,1.62,1.26,2.15,2.1,1.6.46,2.98,1.52,3.83,2.98.92,1.59,1.13,3.49.57,5.23.47.91.74,1.95.73,3.03l-1.15,206.93c-.01,1.96-.91,3.81-2.43,5.03-.51.87-1.22,1.63-2.1,2.19l-182.94,117.77c-.97.62-2.05.96-3.14,1.02l-.06.08c-1.22,1.59-3.1,2.53-5.11,2.54h-.05Z"/>
    <g class="cls-6">
      <rect class="cls-2" x="107.61" y="206.92" width="0" height="461.45"/>
      <rect class="cls-2" x="107.61" y="206.92" width="1.99" height="461.45"/>
      <rect class="cls-2" x="109.6" y="206.92" width="1.99" height="461.45"/>
      <rect class="cls-2" x="111.58" y="206.92" width="1.99" height="461.45"/>
      <rect class="cls-2" x="113.57" y="206.92" width="1.99" height="461.45"/>
      <rect class="cls-2" x="115.56" y="206.92" width="1.99" height="461.45"/>
      <rect class="cls-2" x="117.54" y="206.92" width="1.99" height="461.45"/>
      <rect class="cls-2" x="119.53" y="206.92" width="1.99" height="461.45"/>
      <rect class="cls-2" x="121.51" y="206.92" width="1.99" height="461.45"/>
      <rect class="cls-2" x="123.5" y="206.92" width="1.99" height="461.45"/>
      <rect class="cls-2" x="125.49" y="206.92" width="1.99" height="461.45"/>
      <rect class="cls-2" x="127.47" y="206.92" width="1.99" height="461.45"/>
      <rect class="cls-2" x="129.46" y="206.92" width="1.99" height="461.45"/>
      <rect class="cls-2" x="131.44" y="206.92" width="1.99" height="461.45"/>
      <rect class="cls-2" x="133.43" y="206.92" width="1.99" height="461.45"/>
      <rect class="cls-2" x="135.41" y="206.92" width="1.99" height="461.45"/>
      <rect class="cls-2" x="137.4" y="206.92" width="1.99" height="461.45"/>
      <rect class="cls-2" x="139.39" y="206.92" width="1.99" height="461.45"/>
      <rect class="cls-2" x="141.37" y="206.92" width="1.99" height="461.45"/>
      <rect class="cls-2" x="143.36" y="206.92" width="1.99" height="461.45"/>
      <rect class="cls-2" x="145.34" y="206.92" width="1.99" height="461.45"/>
      <rect class="cls-2" x="147.33" y="206.92" width="1.99" height="461.45"/>
      <rect class="cls-2" x="149.31" y="206.92" width="1.99" height="461.45"/>
      <rect class="cls-2" x="151.3" y="206.92" width="1.99" height="461.45"/>
      <rect class="cls-2" x="153.29" y="206.92" width="1.99" height="461.45"/>
      <rect class="cls-2" x="155.27" y="206.92" width="1.99" height="461.45"/>
      <rect class="cls-2" x="157.26" y="206.92" width="1.99" height="461.45"/>
      <rect class="cls-2" x="159.24" y="206.92" width="1.99" height="461.45"/>
      <rect class="cls-2" x="161.23" y="206.92" width="1.99" height="461.45"/>
      <rect class="cls-2" x="163.22" y="206.92" width="1.99" height="461.45"/>
      <rect class="cls-2" x="165.2" y="206.92" width="1.99" height="461.45"/>
      <rect class="cls-2" x="167.19" y="206.92" width="1.99" height="461.45"/>
      <rect class="cls-2" x="169.17" y="206.92" width="1.99" height="461.45"/>
      <rect class="cls-2" x="171.16" y="206.92" width="1.99" height="461.45"/>
      <rect class="cls-2" x="173.14" y="206.92" width="1.99" height="461.45"/>
      <rect class="cls-2" x="175.13" y="206.92" width="1.99" height="461.45"/>
      <rect class="cls-2" x="177.12" y="206.92" width="1.99" height="461.45"/>
      <rect class="cls-2" x="179.1" y="206.92" width="1.99" height="461.45"/>
      <rect class="cls-2" x="181.09" y="206.92" width="1.99" height="461.45"/>
      <rect class="cls-2" x="183.07" y="206.92" width="1.99" height="461.45"/>
      <rect class="cls-2" x="185.06" y="206.92" width="1.99" height="461.45"/>
      <rect class="cls-2" x="187.04" y="206.92" width="1.99" height="461.45"/>
      <rect class="cls-2" x="189.03" y="206.92" width="1.99" height="461.45"/>
      <rect class="cls-2" x="191.02" y="206.92" width="1.99" height="461.45"/>
      <rect class="cls-2" x="193" y="206.92" width="1.99" height="461.45"/>
      <rect class="cls-2" x="194.99" y="206.92" width="1.99" height="461.45"/>
      <rect class="cls-2" x="196.97" y="206.92" width="1.99" height="461.45"/>
      <rect class="cls-2" x="198.96" y="206.92" width="1.99" height="461.45"/>
      <rect class="cls-2" x="200.94" y="206.92" width="1.99" height="461.45"/>
      <rect class="cls-2" x="202.93" y="206.92" width="1.99" height="461.45"/>
      <rect class="cls-2" x="204.92" y="206.92" width="1.99" height="461.45"/>
      <rect class="cls-2" x="206.9" y="206.92" width="1.99" height="461.45"/>
      <rect class="cls-2" x="208.89" y="206.92" width="1.99" height="461.45"/>
      <rect class="cls-2" x="210.87" y="206.92" width="1.99" height="461.45"/>
      <rect class="cls-2" x="212.86" y="206.92" width="1.99" height="461.45"/>
      <rect class="cls-2" x="214.85" y="206.92" width="1.99" height="461.45"/>
      <rect class="cls-2" x="216.83" y="206.92" width="1.99" height="461.45"/>
      <rect class="cls-2" x="218.82" y="206.92" width="2.02" height="461.45"/>
      <rect class="cls-2" x="220.84" y="206.92" width="2.02" height="461.45"/>
      <rect class="cls-2" x="222.86" y="206.92" width="2.02" height="461.45"/>
      <rect class="cls-2" x="224.87" y="206.92" width="2.02" height="461.45"/>
      <rect class="cls-2" x="226.89" y="206.92" width="2.02" height="461.45"/>
      <rect class="cls-2" x="228.91" y="206.92" width="2.02" height="461.45"/>
      <rect class="cls-2" x="230.93" y="206.92" width="2.02" height="461.45"/>
      <rect class="cls-2" x="232.95" y="206.92" width="2.02" height="461.45"/>
      <rect class="cls-2" x="234.97" y="206.92" width="2.02" height="461.45"/>
      <rect class="cls-2" x="236.99" y="206.92" width="2.02" height="461.45"/>
      <rect class="cls-2" x="239.01" y="206.92" width="2.02" height="461.45"/>
      <rect class="cls-2" x="241.03" y="206.92" width="2.02" height="461.45"/>
      <rect class="cls-2" x="243.05" y="206.92" width="2.02" height="461.45"/>
      <rect class="cls-2" x="245.07" y="206.92" width="2.02" height="461.45"/>
      <rect class="cls-2" x="247.09" y="206.92" width="2.02" height="461.45"/>
      <rect class="cls-2" x="249.11" y="206.92" width="2.02" height="461.45"/>
      <rect class="cls-2" x="251.12" y="206.92" width="2.02" height="461.45"/>
      <rect class="cls-2" x="253.14" y="206.92" width="2.02" height="461.45"/>
      <rect class="cls-2" x="255.16" y="206.92" width="2.02" height="461.45"/>
      <rect class="cls-2" x="257.18" y="206.92" width="2.02" height="461.45"/>
      <rect class="cls-2" x="259.2" y="206.92" width="2.02" height="461.45"/>
      <rect class="cls-2" x="261.22" y="206.92" width="2.02" height="461.45"/>
      <rect class="cls-2" x="263.24" y="206.92" width="2.02" height="461.45"/>
      <rect class="cls-2" x="265.26" y="206.92" width="2.02" height="461.45"/>
      <rect class="cls-2" x="267.28" y="206.92" width="2.02" height="461.45"/>
      <rect class="cls-2" x="269.3" y="206.92" width="2.02" height="461.45"/>
      <rect class="cls-2" x="271.32" y="206.92" width="2.02" height="461.45"/>
      <rect class="cls-2" x="273.34" y="206.92" width="2.02" height="461.45"/>
      <rect class="cls-2" x="275.36" y="206.92" width="2.02" height="461.45"/>
      <rect class="cls-2" x="277.37" y="206.92" width="2.02" height="461.45"/>
      <rect class="cls-2" x="279.39" y="206.92" width="2.02" height="461.45"/>
      <rect class="cls-2" x="281.41" y="206.92" width="2.02" height="461.45"/>
      <rect class="cls-2" x="283.43" y="206.92" width="2.02" height="461.45"/>
      <rect class="cls-2" x="285.45" y="206.92" width="2.02" height="461.45"/>
      <rect class="cls-2" x="287.47" y="206.92" width="2.02" height="461.45"/>
      <rect class="cls-2" x="289.49" y="206.92" width="2.02" height="461.45"/>
      <rect class="cls-2" x="291.51" y="206.92" width="2.02" height="461.45"/>
      <rect class="cls-2" x="293.53" y="206.92" width="2.02" height="461.45"/>
      <rect class="cls-2" x="295.55" y="206.92" width="2.02" height="461.45"/>
      <rect class="cls-2" x="297.57" y="206.92" width="2.02" height="461.45"/>
      <rect class="cls-2" x="299.59" y="206.92" width="2.02" height="461.45"/>
      <rect class="cls-2" x="301.6" y="206.92" width="2.02" height="461.45"/>
      <rect class="cls-2" x="303.62" y="206.92" width="2.02" height="461.45"/>
      <rect class="cls-2" x="305.64" y="206.92" width="2.02" height="461.45"/>
      <rect class="cls-2" x="307.66" y="206.92" width="2.02" height="461.45"/>
      <rect class="cls-2" x="309.68" y="206.92" width="2.02" height="461.45"/>
      <rect class="cls-2" x="311.7" y="206.92" width="2.02" height="461.45"/>
      <rect class="cls-2" x="313.72" y="206.92" width="2.02" height="461.45"/>
      <rect class="cls-2" x="315.74" y="206.92" width="2.02" height="461.45"/>
      <rect class="cls-2" x="317.76" y="206.92" width="2.02" height="461.45"/>
      <rect class="cls-2" x="319.78" y="206.92" width="2.02" height="461.45"/>
      <rect class="cls-2" x="321.8" y="206.92" width="2.02" height="461.45"/>
      <rect class="cls-2" x="323.82" y="206.92" width="2.02" height="461.45"/>
      <rect class="cls-2" x="325.84" y="206.92" width="2.02" height="461.45"/>
      <rect class="cls-2" x="327.85" y="206.92" width="2.02" height="461.45"/>
      <rect class="cls-2" x="329.87" y="206.92" width="2.02" height="461.45"/>
      <rect class="cls-2" x="331.89" y="206.92" width="2.02" height="461.45"/>
      <rect class="cls-2" x="333.91" y="206.92" width="2.02" height="461.45"/>
      <rect class="cls-2" x="335.93" y="206.92" width="2.02" height="461.45"/>
      <rect class="cls-2" x="337.95" y="206.92" width="2.02" height="461.45"/>
      <rect class="cls-2" x="339.97" y="206.92" width="2.02" height="461.45"/>
      <rect class="cls-2" x="341.99" y="206.92" width="2.02" height="461.45"/>
      <rect class="cls-2" x="344.01" y="206.92" width="2.02" height="461.45"/>
      <rect class="cls-2" x="346.03" y="206.92" width="2.02" height="461.45"/>
      <rect class="cls-2" x="348.05" y="206.92" width="2.02" height="461.45"/>
      <rect class="cls-2" x="350.07" y="206.92" width="2.02" height="461.45"/>
      <rect class="cls-2" x="352.09" y="206.92" width="2.02" height="461.45"/>
      <rect class="cls-2" x="354.1" y="206.92" width="2.02" height="461.45"/>
      <rect class="cls-2" x="356.12" y="206.92" width="2.02" height="461.45"/>
      <rect class="cls-2" x="358.14" y="206.92" width="2.02" height="461.45"/>
      <rect class="cls-2" x="360.16" y="206.92" width="2.02" height="461.45"/>
      <rect class="cls-2" x="362.18" y="206.92" width="2.02" height="461.45"/>
      <rect class="cls-2" x="364.2" y="206.92" width="2.02" height="461.45"/>
      <rect class="cls-2" x="366.22" y="206.92" width="2.02" height="461.45"/>
      <rect class="cls-2" x="368.24" y="206.92" width="2.02" height="461.45"/>
      <rect class="cls-2" x="370.26" y="206.92" width="2.02" height="461.45"/>
      <rect class="cls-2" x="372.28" y="206.92" width="1.58" height="461.45"/>
      <rect class="cls-2" x="373.85" y="206.92" width="1.58" height="461.45"/>
      <rect class="cls-2" x="375.43" y="206.92" width="1.58" height="461.45"/>
      <rect class="cls-2" x="377.01" y="206.92" width="1.58" height="461.45"/>
      <rect class="cls-2" x="378.59" y="206.92" width="1.58" height="461.45"/>
      <rect class="cls-2" x="380.16" y="206.92" width="1.58" height="461.45"/>
      <rect class="cls-2" x="381.74" y="206.92" width="1.58" height="461.45"/>
      <rect class="cls-2" x="383.32" y="206.92" width="1.58" height="461.45"/>
      <rect class="cls-2" x="384.89" y="206.92" width="1.58" height="461.45"/>
      <rect class="cls-2" x="386.47" y="206.92" width="1.58" height="461.45"/>
      <rect class="cls-2" x="388.05" y="206.92" width="1.58" height="461.45"/>
      <rect class="cls-2" x="389.63" y="206.92" width="1.58" height="461.45"/>
      <rect class="cls-2" x="391.2" y="206.92" width="1.58" height="461.45"/>
      <rect class="cls-2" x="392.78" y="206.92" width="1.58" height="461.45"/>
      <rect class="cls-2" x="394.36" y="206.92" width="1.58" height="461.45"/>
      <rect class="cls-2" x="395.93" y="206.92" width="1.58" height="461.45"/>
      <rect class="cls-2" x="397.51" y="206.92" width="1.58" height="461.45"/>
      <rect class="cls-2" x="399.09" y="206.92" width="1.58" height="461.45"/>
      <rect class="cls-2" x="400.66" y="206.92" width="1.58" height="461.45"/>
      <rect class="cls-2" x="402.24" y="206.92" width="1.58" height="461.45"/>
      <rect class="cls-2" x="403.82" y="206.92" width="1.58" height="461.45"/>
      <rect class="cls-2" x="405.4" y="206.92" width="1.58" height="461.45"/>
      <rect class="cls-2" x="406.97" y="206.92" width="1.58" height="461.45"/>
      <rect class="cls-2" x="408.55" y="206.92" width="1.58" height="461.45"/>
      <rect class="cls-2" x="410.13" y="206.92" width="1.58" height="461.45"/>
      <rect class="cls-2" x="411.7" y="206.92" width="1.58" height="461.45"/>
      <rect class="cls-2" x="413.28" y="206.92" width="1.58" height="461.45"/>
      <rect class="cls-2" x="414.86" y="206.92" width="1.58" height="461.45"/>
      <rect class="cls-2" x="416.44" y="206.92" width="1.58" height="461.45"/>
      <rect class="cls-2" x="418.01" y="206.92" width="1.58" height="461.45"/>
      <rect class="cls-2" x="419.59" y="206.92" width="1.58" height="461.45"/>
      <rect class="cls-2" x="421.17" y="206.92" width="1.58" height="461.45"/>
      <rect class="cls-2" x="422.74" y="206.92" width="1.58" height="461.45"/>
      <rect class="cls-2" x="424.32" y="206.92" width="1.58" height="461.45"/>
      <rect class="cls-2" x="425.9" y="206.92" width="1.58" height="461.45"/>
      <rect class="cls-2" x="427.47" y="206.92" width="1.58" height="461.45"/>
      <rect class="cls-2" x="429.05" y="206.92" width="1.58" height="461.45"/>
      <rect class="cls-2" x="430.63" y="206.92" width="1.58" height="461.45"/>
      <rect class="cls-2" x="432.21" y="206.92" width="1.58" height="461.45"/>
      <rect class="cls-2" x="433.78" y="206.92" width="1.58" height="461.45"/>
      <rect class="cls-2" x="435.36" y="206.92" width="1.58" height="461.45"/>
      <rect class="cls-2" x="436.94" y="206.92" width="1.58" height="461.45"/>
      <rect class="cls-2" x="438.51" y="206.92" width="1.58" height="461.45"/>
      <rect class="cls-2" x="440.09" y="206.92" width="1.58" height="461.45"/>
      <rect class="cls-2" x="441.67" y="206.92" width="1.58" height="461.45"/>
      <rect class="cls-2" x="443.25" y="206.92" width="1.58" height="461.45"/>
      <rect class="cls-2" x="444.82" y="206.92" width="1.58" height="461.45"/>
      <rect class="cls-2" x="446.4" y="206.92" width="1.58" height="461.45"/>
      <rect class="cls-2" x="447.98" y="206.92" width="1.58" height="461.45"/>
      <rect class="cls-2" x="449.55" y="206.92" width="1.58" height="461.45"/>
      <rect class="cls-2" x="451.13" y="206.92" width="1.58" height="461.45"/>
      <rect class="cls-2" x="452.71" y="206.92" width="1.58" height="461.45"/>
      <rect class="cls-2" x="454.29" y="206.92" width="1.58" height="461.45"/>
      <rect class="cls-2" x="455.86" y="206.92" width="1.58" height="461.45"/>
      <rect class="cls-2" x="457.44" y="206.92" width="1.58" height="461.45"/>
      <rect class="cls-2" x="459.02" y="206.92" width=".99" height="461.45"/>
      <rect class="cls-2" x="460" y="206.92" width=".99" height="461.45"/>
      <rect class="cls-2" x="460.99" y="206.92" width=".99" height="461.45"/>
      <rect class="cls-2" x="461.98" y="206.92" width=".99" height="461.45"/>
      <rect class="cls-2" x="462.97" y="206.92" width=".99" height="461.45"/>
      <rect class="cls-2" x="463.96" y="206.92" width=".99" height="461.45"/>
      <rect class="cls-2" x="464.95" y="206.92" width=".99" height="461.45"/>
      <rect class="cls-2" x="465.94" y="206.92" width=".99" height="461.45"/>
      <rect class="cls-2" x="466.92" y="206.92" width=".99" height="461.45"/>
      <rect class="cls-2" x="467.91" y="206.92" width=".99" height="461.45"/>
      <rect class="cls-2" x="468.9" y="206.92" width=".99" height="461.45"/>
      <rect class="cls-2" x="469.89" y="206.92" width=".99" height="461.45"/>
      <rect class="cls-2" x="470.88" y="206.92" width=".99" height="461.45"/>
      <rect class="cls-2" x="471.87" y="206.92" width=".99" height="461.45"/>
      <rect class="cls-2" x="472.85" y="206.92" width=".99" height="461.45"/>
      <rect class="cls-2" x="473.84" y="206.92" width=".99" height="461.45"/>
      <rect class="cls-2" x="474.83" y="206.92" width=".99" height="461.45"/>
      <rect class="cls-2" x="475.82" y="206.92" width=".99" height="461.45"/>
      <rect class="cls-2" x="476.81" y="206.92" width=".99" height="461.45"/>
      <rect class="cls-2" x="477.8" y="206.92" width=".99" height="461.45"/>
      <rect class="cls-2" x="478.79" y="206.92" width=".99" height="461.45"/>
      <rect class="cls-2" x="479.77" y="206.92" width=".99" height="461.45"/>
      <rect class="cls-2" x="480.76" y="206.92" width=".99" height="461.45"/>
      <rect class="cls-2" x="481.75" y="206.92" width=".99" height="461.45"/>
      <rect class="cls-2" x="482.74" y="206.92" width=".99" height="461.45"/>
      <rect class="cls-2" x="483.73" y="206.92" width=".99" height="461.45"/>
      <rect class="cls-2" x="484.72" y="206.92" width=".99" height="461.45"/>
      <rect class="cls-2" x="485.71" y="206.92" width=".99" height="461.45"/>
      <rect class="cls-2" x="486.69" y="206.92" width=".99" height="461.45"/>
      <rect class="cls-2" x="487.68" y="206.92" width=".99" height="461.45"/>
      <rect class="cls-2" x="488.67" y="206.92" width=".99" height="461.45"/>
      <rect class="cls-2" x="489.66" y="206.92" width=".99" height="461.45"/>
      <rect class="cls-2" x="490.65" y="206.92" width=".99" height="461.45"/>
      <rect class="cls-2" x="491.64" y="206.92" width=".99" height="461.45"/>
      <rect class="cls-2" x="492.62" y="206.92" width=".99" height="461.45"/>
      <rect class="cls-2" x="493.61" y="206.92" width=".99" height="461.45"/>
      <rect class="cls-2" x="494.6" y="206.92" width=".99" height="461.45"/>
      <rect class="cls-2" x="495.59" y="206.92" width=".99" height="461.45"/>
      <rect class="cls-2" x="496.58" y="206.92" width=".99" height="461.45"/>
      <rect class="cls-2" x="497.57" y="206.92" width=".99" height="461.45"/>
      <rect class="cls-2" x="498.56" y="206.92" width=".99" height="461.45"/>
      <rect class="cls-2" x="499.54" y="206.92" width=".99" height="461.45"/>
      <rect class="cls-2" x="500.53" y="206.92" width=".99" height="461.45"/>
      <rect class="cls-2" x="501.52" y="206.92" width=".99" height="461.45"/>
      <rect class="cls-2" x="502.51" y="206.92" width=".99" height="461.45"/>
      <rect class="cls-2" x="503.5" y="206.92" width="0" height="461.45"/>
    </g>
  </g>
  <path class="cls-3" d="m264.81,126.57c.93,2.8,56.62,45.93,15.53,51.53-41.09,5.6-57.94-2.87-66.35-30.89-8.41-28.02-4.67-50.43-30.82-51.37s-79.38.93-99.93,22.41c-20.55,21.48-48.56,27.08,3.74,74.71,52.3,47.63,63.51,54.17,63.51,54.17,0,0-78.45-58.84-62.57-84.05,15.88-25.22,54.17-35.49,66.31-1.87s-28.02,56.97,42.03,69.11c70.05,12.14,127.46-34.45,121.86-62.47-5.6-28.02-53.29-41.29-53.29-41.29Z"/>
  <path class="cls-5" d="m115.76,541.09l-1.15-206.93,36.55,90.79,34.18,84.89-.68,1.17.22.39c-25.44,11.39-61.8,27.33-69.12,29.7Zm306.82-28.4h-234.63l119.06,150.58,115.56-150.58Zm-115.56-208.33l-65.56,113.13-52.29,92.95h233.77l-115.92-206.08Zm40.97,68.25l76.7,136.36,72.38-179.78-102.62-14.02-85.33-11.66,38.87,69.1Zm-161.22,134.76l52.74-91,63.48-112.86-85.33,11.66-102.62,14.02,71.73,178.17Zm238.44,5.59l-113.35,147.7,182.94-117.77c-11.9-4.17-57.74-24.63-69.59-29.93Zm-307.9,29.93l186.68,120.18-118.27-149.58c-13.44,6.02-56.88,25.37-68.41,29.4Zm251.54-233.48l124.52,17.01-186.18-111.6c.11,12.58.85,77.54.95,86.29l60.7,8.29Zm92.1,115.54l-34.64,86.04c25.47,11.41,62.63,27.72,70.04,30.11l1.15-206.93-36.55,90.79Zm-217.69-115.54l60.7-8.29c.1-8.75.84-73.71.95-86.29l-186.18,111.6,124.52-17.01Z"/>
  <path class="cls-2" d="m324.05,571c1.54-1.75,2.77-3.66,3.71-5.67l28.93,10.02,20.97-18.57-14.55-11.07-10.85,8.38s10.04,3.05,7.54,7.21c-2.5,4.16-16.51,1.67-25.61-1.14-1.35-.42-2.88-.75-4.5-1.01,1.24-7.47-1.09-15.38-6.84-21l20.17-24.96s-13.5-11.52-13.76-99.24c-.26-87.72-7.13-263.67-10.76-288.82s-12.17-43.52-12.17-43.52c0,0-8.54,18.36-12.17,43.52-3.63,25.16-10.5,201.11-10.76,288.82-.26,87.72-13.76,99.24-13.76,99.24l19.99,24.74c-.5.48-.98.97-1.45,1.5-4.93,5.6-6.76,12.87-5.63,19.7-1.68.26-3.26.6-4.65,1.03-9.1,2.81-23.11,5.3-25.61,1.14-2.5-4.16,7.54-7.21,7.54-7.21l-10.85-8.38-14.55,11.07,20.97,18.57,29.06-10.07c1.35,2.92,3.31,5.61,5.88,7.87,1.52,1.34,3.16,2.44,4.88,3.33l2.48,134.54c-1.19.82-2.3,1.79-3.3,2.93-6.5,7.38-5.78,18.63,1.6,25.13,7.38,6.5,18.63,5.78,25.13-1.6,6.5-7.38,5.78-18.63-1.6-25.13-1.05-.93-2.19-1.7-3.37-2.34l.92-133.56c2.57-1.33,4.94-3.14,6.97-5.44Z"/>
  <path class="cls-3" d="m158.15,676.81s-43.06,12-41.65,36.71c1.41,24.71,31.76-6.35,53.65,2.12s28.24,25.41,12.71,28.94-7.76-9.18-23.29-8.47c-15.53.71,2.12-1.41,5.65,6.35s27.53,16.94,31.76,1.41c4.24-15.53,14.12-33.88-14.82-38.82-28.94-4.94-31.06,8.47-38.82,2.12-7.76-6.35,30.35-17.65,30.35-17.65l-15.53-12.71Z"/>
  <g>
    <path class="cls-4" d="m533.86,577.34s-13.41-7.76-32.47-17.65-27.53-9.18-27.53-9.18l-8.47,4.24-4.24-7.06s-54.35-9.88-98.12,7.76c-43.76,17.65-82.59,51.53-82.59,51.53l-4.94,9.88-11.29-4.94s-16.94,8.47-87.53,9.18c-70.59.71-76.94-68.47-76.94-68.47,0,0-2.12,9.88,7.76,43.76,0,.03.02.06.03.08,7.24,10.35,28.76,35.35,71.57,42.48,57.32,9.55,112.22-13.28,135.14-30.96,22.76-17.56,72.97-47.45,116.77-48.1,46.89-.68,94.39,28.72,94.86,29.02l-.53.85c-.47-.29-47.7-29.53-94.32-28.86-43.54.65-93.51,30.41-116.17,47.9-19.3,14.89-61.16,33.42-108.09,33.42-9.13,0-18.44-.7-27.82-2.26-40.13-6.69-61.73-28.96-70.47-40.49,7.25,21.56,26.75,51.88,40.24,71.45,3.94,2.69,17.13,11.52,27.72,16.81,11.96,5.98,45.07,14.09,87.28,11.95,32.93-1.67,49.3-11.66,76.41-28.21,6.9-4.21,14.72-8.98,23.61-14.08,40.93-23.49,74.16-36.41,113.29-28.29,38.57,8,44.71,46.64,44.16,49.98l-.99-.16c.54-3.26-5.52-40.98-43.37-48.84-38.82-8.05-71.86,4.81-112.59,28.18-8.87,5.09-16.69,9.86-23.58,14.07-27.24,16.63-43.69,26.66-76.88,28.35-4.74.24-9.37.35-13.87.35-35.72,0-63.21-7.05-73.91-12.41-9.17-4.59-20.28-11.81-25.7-15.44,7.17,10.31,12.29,17.11,12.29,17.11,0,0,7.06,7.06,12.71,9.18,5.65,2.12,16.24,4.24,16.24,4.24l4.24-7.76.71,11.29s48.71,7.06,83.29,2.12c34.59-4.94,96-40.94,96-40.94v-9.88l9.88,4.94s19.76-17.65,52.94-25.41c33.18-7.76,50.82,6.35,69.88,27.53,19.06,21.18-2.82,50.12-2.82,50.12,0,0,12.71-15.53,14.82-28.94,2.12-13.41-.71-15.53-2.12-52.24-1.41-36.71,15.53-57.18,15.53-57.18Z"/>
    <path class="cls-4" d="m104.64,591.93l-.89.46c.05.1,1.55,2.88,4.71,7.06-.34-1.01-.66-2.01-.94-2.98-1.92-2.74-2.85-4.47-2.89-4.55Z"/>
    <path class="cls-4" d="m147.54,670.1l-.57.82s1.28.89,3.3,2.24c-.51-.74-1.04-1.49-1.57-2.27-.73-.49-1.14-.78-1.16-.8Z"/>
  </g>
  <g>
    <path class="cls-2" d="m211.61,688.52c.25-.51.48-.99.71-1.42.22-.43.44-.87.65-1.31.57-1.35,1.12-2.71,1.65-4.1.33-.89.66-1.77.98-2.64.32-.88.62-1.76.9-2.66.59-1.76,1.14-3.52,1.67-5.28.53-1.76,1.09-3.51,1.67-5.28.31-.92.64-1.81.97-2.69.33-.87.68-1.77,1.05-2.68.63-1.5,1.23-3.01,1.82-4.5.58-1.5,1.19-3,1.82-4.5.55-1.35,1.17-2.65,1.87-3.89.31-.56.65-1.11,1.01-1.67.36-.55.75-1.07,1.16-1.56.24-.27.51-.49.83-.68.32-.18.65-.37.98-.57.21-.13.4-.14.57-.03.16.11.32.2.47.28.17.11.26.25.25.41-.01.16-.06.34-.15.52-.29.59-.57,1.18-.84,1.78-.28.59-.53,1.19-.76,1.79-.51,1.28-1.02,2.55-1.53,3.83-.51,1.28-1.02,2.56-1.53,3.87-.73,1.96-1.46,3.9-2.2,5.81-.74,1.92-1.45,3.86-2.16,5.82-.42,1.21-.8,2.42-1.17,3.65-.36,1.23-.75,2.45-1.17,3.65-.21.6-.42,1.21-.65,1.83-.22.62-.45,1.22-.69,1.82-.51,1.28-1.01,2.55-1.5,3.83-.5,1.28-1.01,2.54-1.54,3.78-.31.75-.65,1.49-1,2.21-.35.72-.72,1.44-1.11,2.15-.32.59-.73,1.07-1.23,1.46-.5.39-1.02.78-1.56,1.16-.5.36-1.03.64-1.59.83s-1.11.39-1.67.6c-.15.09-.32.16-.49.23-.18.07-.34.15-.49.23-.59.21-1.14.31-1.67.29-.52-.01-1.03-.23-1.52-.64-.54-.42-1.02-.88-1.44-1.37s-.79-1.05-1.11-1.65c-.78-1.54-1.43-3.11-1.94-4.73s-.96-3.27-1.32-4.97c-.53-2.38-1.07-4.75-1.61-7.09-.54-2.34-1.06-4.72-1.56-7.12-.54-2.49-1.08-4.97-1.61-7.44-.53-2.47-1.05-4.96-1.57-7.48-.26-1.31-.44-2.63-.53-3.95s-.06-2.65.1-4.01c.17-1.38.7-2.59,1.61-3.6.68-.8,1.42-1.19,2.22-1.16.8.03,1.57.47,2.32,1.31.31.33.55.7.74,1.11s.35.83.51,1.24c.5,1.57.99,3.13,1.47,4.68.49,1.55.96,3.12,1.43,4.71.41,1.42.79,2.84,1.13,4.25.34,1.41.69,2.84,1.04,4.28.47,1.9.94,3.78,1.41,5.62.47,1.85.92,3.72,1.36,5.62.38,1.61.75,3.21,1.12,4.81.37,1.6.76,3.19,1.17,4.78.25,1.01.56,2,.92,2.97.36.97.69,1.96,1,2.98.02.06.05.11.1.16.05.05.11.15.2.3Z"/>
    <path class="cls-2" d="m235.51,691.06c.08.71.14,1.38.19,2.01.05.55.09,1.07.12,1.56.02.49,0,.83-.05,1.03-.14.52-.36.91-.66,1.19-.3.27-.71.38-1.23.32-.79-.11-1.41-.41-1.86-.89-.45-.48-.82-1.04-1.12-1.67-.22-.41-.37-.81-.45-1.19-.08-.36-.16-.7-.24-1.03s-.15-.67-.2-1.03c-.13-1.45-.27-2.88-.41-4.31-.14-1.42-.27-2.86-.37-4.31-.1-1.29-.2-2.56-.29-3.81s-.12-2.54-.08-3.85c.03-.74.04-1.48.03-2.21-.01-.74-.01-1.48,0-2.21.03-.46.05-.92.07-1.37.02-.45.04-.91.07-1.37,0-.46,0-.92-.01-1.35s0-.89.03-1.35c.03-.55.11-1.09.25-1.64.17-.66.56-1.14,1.18-1.45.62-.31,1.22-.32,1.82-.01.22.11.4.25.55.43.15.18.29.36.43.56.24.38.43.78.55,1.19.12.41.23.83.34,1.27.24,1.04.41,2.07.5,3.1.09,1.03.12,2.06.09,3.1-.03.71-.04,1.4-.03,2.07,0,.67.01,1.36,0,2.07h.04c.05.82.07,1.63.07,2.44,0,.81.02,1.62.07,2.44l.57,8.61c.03.3.04.58.04.84,0,.26,0,.54,0,.84Zm-3-32.08c-.17.08-.36.14-.58.16-.22.03-.43,0-.63-.06-.21-.07-.4-.22-.57-.45-.18-.23-.3-.58-.38-1.05-.08-.46-.06-.85.07-1.17.12-.31.28-.58.48-.8.22-.25.49-.45.82-.61.08-.05.27-.03.55.08.29.11.58.24.88.37.33.14.62.45.88.95.26.49.4.93.42,1.31,0,.19-.06.35-.19.47-.12.12-.29.24-.49.35-.21.11-.42.2-.64.26-.22.07-.42.13-.62.18Z"/>
    <path class="cls-2" d="m248.53,673.5c.06-.23.1-.43.13-.61.03-.18.07-.36.1-.53.25-1.38.51-2.75.76-4.13.25-1.38.62-2.73,1.1-4.05.52-1.46,1.1-2.87,1.76-4.23.65-1.36,1.47-2.64,2.46-3.86.77-.94,1.64-1.73,2.61-2.37.97-.64,2.06-1.07,3.28-1.29,1.88-.36,3.49.17,4.81,1.59.79.84,1.36,1.76,1.72,2.75.36.99.62,2.04.78,3.15.13.92.17,1.84.11,2.75s-.15,1.82-.26,2.71c-.22,1.68-.57,3.31-1.06,4.91-.49,1.6-1.09,3.15-1.79,4.67-.18.35-.34.71-.49,1.09-.15.38-.32.72-.5,1.05-.18.35-.36.71-.54,1.07-.18.37-.36.72-.54,1.07-.18.35-.37.7-.58,1.06-.21.35-.41.71-.62,1.06-.21.35-.41.7-.62,1.04-.21.34-.42.67-.63,1-.24.33-.47.67-.69,1.01-.22.34-.46.68-.73,1.01-.76,1.05-1.56,2.05-2.4,3-.84.95-1.73,1.88-2.67,2.79-.2.19-.37.41-.52.66-.15.25-.31.5-.47.74-.11.21-.23.41-.34.62-.11.21-.24.41-.38.62-.47.69-1.04,1.25-1.7,1.68-.67.44-1.38.81-2.14,1.12-.37.15-.74.26-1.12.32-.38.06-.77,0-1.18-.17-.37-.12-.68-.31-.93-.57-.25-.26-.48-.54-.68-.85-.46-.63-.8-1.31-1.02-2.03-.22-.72-.4-1.47-.55-2.25-.27-1.37-.53-2.75-.79-4.14-.26-1.39-.52-2.78-.8-4.18-.17-.94-.34-1.89-.54-2.85-.19-.95-.37-1.92-.54-2.89-.29-1.54-.58-3.06-.88-4.58-.3-1.52-.58-3.05-.84-4.59-.23-1.46-.44-2.9-.65-4.32-.21-1.42-.42-2.86-.65-4.32-.18-1.3-.3-2.6-.37-3.9-.07-1.3-.12-2.61-.17-3.92-.06-1.73-.11-3.46-.15-5.2s-.21-3.46-.52-5.16c-.06-.3-.09-.58-.1-.86,0-.27,0-.55-.01-.82.01-.61.17-1.13.46-1.56.29-.43.67-.81,1.13-1.14.1-.07.21-.11.31-.14.11-.03.23-.05.36-.06.66-.02,1.24.1,1.75.35.51.26.94.68,1.28,1.27.34.57.67,1.13.98,1.68.31.56.59,1.14.82,1.74.28.79.49,1.59.61,2.41.12.81.26,1.62.41,2.43.13.67.23,1.35.3,2.03.06.68.14,1.36.22,2.04.16,1.38.32,2.74.47,4.07.16,1.33.33,2.69.51,4.07.1.62.21,1.26.32,1.9.12.65.22,1.28.32,1.9.15.78.29,1.56.44,2.34.15.78.29,1.56.44,2.34.16.86.31,1.71.46,2.55s.32,1.68.5,2.54c.03.22.08.42.15.62s.16.44.25.73Zm2.35,12.77l.17.06c.1-.12.17-.2.22-.23.68-.79,1.34-1.59,1.97-2.38.64-.79,1.26-1.6,1.88-2.45.05-.06.07-.12.06-.17.5-.86,1.01-1.7,1.52-2.53.51-.83.99-1.67,1.44-2.52.5-.91.98-1.83,1.43-2.75s.91-1.84,1.35-2.78c.37-.87.71-1.75,1.04-2.64.32-.89.67-1.78,1.03-2.68.66-1.7,1.02-3.41,1.1-5.12.05-.56.05-1.1.02-1.63-.04-.53-.18-1.06-.43-1.58-.11-.21-.22-.35-.34-.44-.12-.08-.29-.14-.51-.17-1.02-.05-1.91.26-2.66.93-1.3,1.14-2.34,2.49-3.12,4.04-.51,1.02-.99,2.06-1.41,3.12-.43,1.05-.77,2.15-1.02,3.28-.16.76-.36,1.51-.6,2.26-.24.74-.46,1.49-.65,2.22-.29,1.27-.56,2.54-.8,3.81-.24,1.27-.48,2.53-.71,3.8-.14.73-.26,1.47-.36,2.21-.11.74-.23,1.49-.36,2.25-.04.33-.09.68-.13,1.03s-.08.71-.12,1.07Z"/>
    <path class="cls-2" d="m300.55,669.15c-.18,1.25-.37,2.48-.56,3.71-.2,1.22-.43,2.46-.69,3.7-.23,1.18-.54,2.33-.94,3.46-.4,1.13-.85,2.23-1.36,3.32-.76,1.7-1.76,3.11-3.02,4.23-1.25,1.12-2.86,1.85-4.81,2.19-2.03.36-3.89.24-5.58-.38-1.69-.62-3.25-1.66-4.67-3.12-1-1.08-1.86-2.21-2.59-3.41-.73-1.2-1.37-2.47-1.9-3.82-.45-1.04-.81-2.08-1.11-3.14-.29-1.05-.57-2.12-.83-3.22-.27-1.12-.47-2.24-.6-3.37-.13-1.13-.19-2.28-.19-3.45-.01-1.7.09-3.38.3-5.04.21-1.66.66-3.28,1.33-4.87.4-.97.89-1.88,1.47-2.71.58-.84,1.25-1.62,2-2.36.65-.62,1.33-1.16,2.06-1.65.73-.48,1.5-.87,2.33-1.17.93-.33,1.88-.55,2.84-.66.96-.11,1.95.01,2.97.37.26.1.52.18.78.26.27.08.54.15.81.21.97.29,1.85.71,2.66,1.28s1.58,1.19,2.32,1.89,1.32,1.49,1.73,2.4c.41.91.66,1.89.77,2.94.32,3.44-.4,6.68-2.16,9.73-.51.89-1.04,1.76-1.58,2.62-.55.86-1.15,1.68-1.8,2.47-.93,1.1-1.95,2.06-3.06,2.9-1.11.84-2.36,1.49-3.77,1.95-.03,0-.14.07-.33.18.51,1.08,1.1,2.06,1.76,2.95.66.89,1.46,1.65,2.42,2.29.8.51,1.63.82,2.47.94.85.12,1.72.08,2.63-.13.38-.08.68-.25.9-.5.23-.25.45-.52.68-.82.45-.7.83-1.43,1.15-2.19.32-.76.59-1.54.81-2.35.33-1.09.62-2.19.84-3.28s.39-2.19.49-3.3c.07-.53.2-1,.38-1.41.18-.41.52-.73,1.02-.96.32-.07.62-.07.9,0,.22.08.42.21.59.41.17.19.22.5.14.92Zm-18.2,5.26c.33-.15.62-.28.89-.39.27-.11.52-.24.76-.39.86-.48,1.64-1.04,2.35-1.69s1.35-1.35,1.92-2.12c.47-.62.92-1.24,1.34-1.86s.81-1.26,1.19-1.91c.81-1.32,1.35-2.7,1.61-4.14s.3-2.92.12-4.43c-.06-.69-.24-1.32-.55-1.87-.3-.55-.75-1.03-1.35-1.42-1.13-.75-2.31-1.11-3.54-1.08-1.23.03-2.35.51-3.36,1.43-.88.8-1.57,1.71-2.09,2.72-.51,1.02-.88,2.1-1.08,3.24-.35,1.92-.43,3.9-.24,5.92.09,1.08.24,2.15.44,3.2.21,1.05.49,2.09.85,3.13.11.28.23.55.34.82.12.26.25.55.4.84Z"/>
    <path class="cls-2" d="m315.5,613.05c1.83-.88,3.71-1.34,5.65-1.38,1.94-.04,3.9.52,5.87,1.67,1.35.79,2.41,1.92,3.16,3.38.08.14.13.25.15.34.06.22.1.44.1.66,0,.22-.09.42-.27.59-.35.33-.79.36-1.32.1-.52-.3-1.05-.57-1.6-.82-.54-.25-1.1-.51-1.67-.78-.78-.37-1.58-.56-2.39-.6-.81-.03-1.62.06-2.44.29-.47.12-.85.34-1.15.67-.3.33-.59.68-.89,1.04-.76.98-1.23,2.03-1.41,3.15-.18,1.12-.27,2.26-.25,3.42.02,1.16.14,2.29.39,3.38.24,1.09.56,2.19.95,3.29.39,1.1.81,2.18,1.27,3.22.45,1.05.91,2.1,1.38,3.16.29.66.59,1.29.9,1.9s.62,1.24.93,1.88c.33.63.67,1.25,1,1.86s.67,1.23,1.03,1.84c.71,1.26,1.47,2.48,2.28,3.65.81,1.17,1.68,2.31,2.61,3.41.43.51.85,1.03,1.29,1.55.43.52.9,1,1.41,1.43.6.54,1.23,1,1.88,1.39.66.39,1.39.63,2.21.73.26,0,.5,0,.73,0,.23,0,.46-.04.67-.11.39-.1.71-.27.96-.51.25-.24.43-.6.54-1.07.29-1.24.39-2.47.32-3.68s-.29-2.42-.65-3.63c-.38-1.3-.86-2.6-1.43-3.91-.13-.33-.22-.66-.26-.97-.04-.31-.03-.64.02-.98.08-.4.3-.66.66-.79.35-.13.69-.08,1.01.14.03.05.05.07.07.08s.04.03.07.08c.35.55.77,1.06,1.23,1.54s.82,1.03,1.08,1.67c.37.89.69,1.81.96,2.74.28.93.47,1.87.58,2.82.12.91.15,1.8.09,2.68-.06.87-.16,1.75-.31,2.63-.08.46-.18.9-.29,1.33-.11.43-.22.86-.31,1.3-.18.77-.51,1.43-.98,1.98-.47.55-.99,1.06-1.56,1.55-1.07.88-2.2,1.47-3.4,1.78-1.2.31-2.47.44-3.82.41-1.79-.03-3.38-.46-4.75-1.3-1.38-.84-2.65-1.88-3.83-3.13-.71-.79-1.42-1.58-2.1-2.38-.69-.8-1.33-1.65-1.91-2.54-.95-1.35-1.83-2.72-2.67-4.12-.83-1.4-1.62-2.83-2.35-4.3-.82-1.61-1.58-3.22-2.3-4.83-.72-1.61-1.37-3.25-1.94-4.94-.52-1.43-1.02-2.86-1.49-4.28-.47-1.42-.77-2.9-.91-4.43-.13-1.63-.09-3.21.13-4.73.22-1.52.67-3.02,1.36-4.5.59-1.26,1.37-2.37,2.33-3.33.96-.96,2.1-1.85,3.42-2.69Z"/>
    <path class="cls-2" d="m354.25,638.12c-.24-.49-.47-1-.69-1.5-.22-.51-.45-1.01-.69-1.5-.44-.98-.9-1.95-1.38-2.91-.48-.96-.93-1.93-1.35-2.93-.42-1.05-.84-2.11-1.25-3.16-.41-1.05-.79-2.12-1.14-3.22-.38-1.18-.68-2.37-.92-3.57-.24-1.2-.38-2.42-.4-3.66,0-.8,0-1.58.02-2.35.02-.77.17-1.54.43-2.31.09-.28.18-.55.29-.83.1-.27.23-.53.36-.78.16-.32.37-.57.64-.76.27-.18.58-.33.93-.45.58-.2,1.18-.32,1.78-.35.6-.04,1.21-.03,1.81.01.24-.02.4,0,.46.05.53.29,1.04.56,1.55.83.5.27.97.59,1.39.97.56.49,1.08,1.01,1.56,1.55.48.54.97,1.09,1.47,1.65.28.31.55.64.79,1.01.24.37.51.69.82.99.66.65,1.19,1.39,1.59,2.22.4.83.89,1.59,1.48,2.29.13.11.23.25.29.43.06.17.14.34.24.5.35.52.71,1.06,1.06,1.61.36.55.72,1.08,1.1,1.59.62.84,1.25,1.69,1.9,2.54.65.85,1.3,1.69,1.94,2.52.62.84,1.23,1.69,1.84,2.55.61.86,1.25,1.7,1.91,2.51.25.3.52.56.83.79.3.23.6.48.89.75.23.21.43.47.62.77.17.28.31.57.42.87.11.3.18.62.22.95.15.71-.11,1.18-.78,1.39-2.05.62-3.95.39-5.68-.69-1.56-.97-2.98-2.07-4.28-3.31s-2.49-2.59-3.57-4.04c-1.35-1.77-2.63-3.58-3.85-5.43s-2.35-3.75-3.4-5.71c-.6-1.14-1.27-2.23-1.99-3.27-.73-1.05-1.45-2.1-2.17-3.17-.06-.09-.13-.17-.21-.23-.08-.06-.21-.17-.37-.33,0,.46-.01.88-.02,1.26,0,.39.02.74.06,1.07.14,1.33.34,2.62.59,3.9.25,1.27.61,2.54,1.06,3.8.17.44.33.89.45,1.36.13.47.27.93.42,1.38.17.54.37,1.08.58,1.61.22.54.43,1.07.62,1.59.47,1.34,1,2.66,1.57,3.95.49,1.21,1,2.39,1.54,3.55s1.06,2.34,1.58,3.53c.29.69.56,1.37.81,2.05.25.68.44,1.4.58,2.15.13.69.13,1.36-.01,2.01-.14.65-.31,1.29-.5,1.92-.11.39-.27.77-.48,1.14-.21.37-.42.73-.65,1.1-.31.48-.65.76-1,.83-.36.08-.79,0-1.32-.22-.63-.29-1.22-.63-1.78-1.02-.56-.39-1.07-.85-1.52-1.37-.58-.67-1.12-1.35-1.63-2.03-.51-.68-1.05-1.36-1.6-2.05-.36-.48-.74-.96-1.12-1.43-.38-.47-.77-.94-1.16-1.41-1.27-1.59-2.5-3.19-3.7-4.8-1.2-1.6-2.35-3.27-3.45-5-1.75-2.74-3.49-5.48-5.2-8.21-1.72-2.73-3.44-5.47-5.17-8.23-1.24-1.96-2.45-3.93-3.63-5.9-1.18-1.97-2.38-3.94-3.6-5.92-.27-.44-.38-.92-.33-1.43.05-.51.3-.96.75-1.33.66-.5,1.37-.72,2.15-.65.59.02,1.11.17,1.55.44.44.27.86.61,1.27,1,.74.73,1.39,1.52,1.96,2.36.57.84,1.14,1.68,1.71,2.51.51.78,1.03,1.54,1.55,2.27.52.74,1.04,1.48,1.56,2.22.3.43.58.86.84,1.29.27.43.55.86.84,1.29.28.4.56.81.83,1.22.27.41.56.81.86,1.2.49.69.98,1.38,1.48,2.05.5.67,1,1.35,1.51,2.03.72.91,1.36,1.85,1.91,2.82.55.98,1.11,1.97,1.66,2.97.22.41.48.8.77,1.17.29.37.58.73.87,1.1.29.43.59.86.89,1.28.3.43.61.86.94,1.3.43.6.86,1.21,1.27,1.82.41.61.84,1.23,1.29,1.86.4.55.8,1.1,1.18,1.63s.77,1.08,1.18,1.63c.09.1.19.2.27.29.09.09.18.19.27.29.07-.04.12-.09.15-.14Z"/>
    <path class="cls-2" d="m398.02,610.38c.02,1.26.03,2.51.03,3.75,0,1.24-.03,2.5-.09,3.77-.04,1.2-.16,2.38-.38,3.56-.21,1.18-.49,2.34-.81,3.5-.48,1.8-1.24,3.35-2.3,4.66s-2.53,2.28-4.4,2.93c-1.95.68-3.8.85-5.57.51-1.77-.34-3.47-1.12-5.11-2.34-1.16-.9-2.19-1.89-3.1-2.95-.91-1.06-1.74-2.22-2.49-3.47-.6-.95-1.13-1.93-1.59-2.92-.46-.99-.9-2.01-1.33-3.04-.44-1.06-.82-2.14-1.13-3.23-.31-1.09-.55-2.22-.74-3.37-.28-1.68-.45-3.36-.5-5.03-.05-1.67.13-3.34.54-5.02.24-1.02.58-1.99,1.02-2.91.44-.92.97-1.8,1.6-2.65.54-.71,1.13-1.36,1.77-1.95.64-.59,1.35-1.1,2.11-1.52.87-.47,1.77-.84,2.7-1.1.93-.26,1.93-.3,2.99-.1.27.05.54.1.81.14s.55.06.83.08c1,.13,1.94.41,2.83.84s1.75.92,2.59,1.49c.84.57,1.54,1.27,2.08,2.1.54.83.95,1.76,1.23,2.78.86,3.34.67,6.66-.59,9.95-.36.96-.75,1.91-1.15,2.84-.4.93-.87,1.84-1.38,2.72-.75,1.23-1.6,2.35-2.56,3.35-.96,1-2.1,1.84-3.41,2.53-.03.01-.12.09-.3.23.68.98,1.41,1.86,2.2,2.63.79.77,1.71,1.4,2.75,1.87.87.37,1.74.55,2.59.54s1.71-.19,2.58-.54c.36-.14.63-.35.81-.63.18-.28.36-.59.54-.92.33-.76.6-1.55.79-2.35s.34-1.62.43-2.45c.16-1.13.26-2.26.31-3.37.05-1.11.03-2.22-.04-3.34-.01-.54.04-1.02.15-1.46.11-.43.4-.8.86-1.11.31-.12.6-.16.88-.15.23.04.45.14.65.31.2.16.29.46.28.89Zm-17.13,8.09c.3-.2.57-.38.82-.52.25-.15.48-.32.69-.51.77-.61,1.45-1.29,2.05-2.04s1.12-1.55,1.56-2.4c.37-.69.71-1.37,1.02-2.05.31-.68.6-1.37.88-2.07.59-1.43.9-2.88.93-4.35.03-1.47-.17-2.93-.59-4.4-.17-.67-.45-1.26-.84-1.76-.39-.5-.91-.89-1.56-1.19-1.24-.56-2.46-.73-3.67-.5-1.21.23-2.24.88-3.09,1.95-.74.93-1.28,1.93-1.63,3.02-.35,1.09-.53,2.21-.55,3.37-.04,1.96.2,3.92.71,5.88.26,1.06.58,2.09.95,3.09.37,1,.82,1.99,1.33,2.95.15.26.31.51.47.75.16.24.33.5.53.77Z"/>
    <path class="cls-2" d="m423.28,588.69c-.29.11-.52.18-.69.21-.18.03-.32.03-.44,0-.12-.03-.23-.11-.34-.23s-.25-.3-.44-.54c-.07-.1-.15-.18-.21-.25-.76-.47-1.53-.91-2.32-1.31-.79-.41-1.63-.64-2.53-.69-.31-.02-.61-.01-.89.04-.28.05-.57.09-.87.12-.16.03-.38.09-.65.19-.27.09-.55.21-.83.35s-.53.28-.76.41c-.22.14-.37.27-.43.39-.84,1.86-1.57,3.73-2.17,5.63-.6,1.9-.88,3.88-.85,5.96,0,1.89.09,3.76.29,5.6.2,1.84.58,3.67,1.14,5.48.29.95.58,1.87.88,2.76s.85,1.65,1.66,2.27c.36.29.69.55.98.77.29.22.64.45,1.05.68.15.08.41.11.77.08.36-.03.74-.08,1.14-.15.4-.08.78-.18,1.13-.3.35-.12.59-.24.71-.34.5-.43.92-.92,1.25-1.47.33-.55.61-1.12.86-1.73.17-.42.31-.86.42-1.33.11-.47.23-.93.36-1.4.13-.5.26-.99.39-1.47s.36-.94.7-1.36c.25-.3.54-.44.88-.44.34,0,.59.19.77.54.17.3.3.62.39.95.09.33.1.68.03,1.06-.12,1-.25,1.98-.4,2.95-.15.97-.37,1.94-.66,2.88-.33,1.04-.75,2.04-1.27,2.99-.51.96-1.14,1.83-1.88,2.61-1.78,1.92-3.73,3.03-5.86,3.32s-4.32-.29-6.57-1.76c-1.61-1.03-2.91-2.29-3.89-3.77-.98-1.48-1.75-3.13-2.31-4.94-.63-1.99-1.02-4.01-1.19-6.03-.16-2.03-.2-4.08-.12-6.15.07-1.52.2-3.02.38-4.5.18-1.48.48-2.94.9-4.39.73-2.47,1.81-4.63,3.26-6.46,1.45-1.83,3.4-3.22,5.87-4.16.52-.21,1.07-.35,1.67-.42.6-.07,1.19-.12,1.77-.15.99-.05,1.98,0,2.95.15.97.15,1.91.47,2.81.97.47.3.96.61,1.45.92s.9.68,1.24,1.12c.45.64.75,1.33.89,2.06.14.74,0,1.49-.4,2.27Z"/>
    <path class="cls-2" d="m467.49,613.92c.03.8-.09,1.36-.37,1.67-.28.32-.58.5-.92.55-.39.07-.84.01-1.34-.17-.62-.44-1.24-.87-1.87-1.27s-1.26-.83-1.87-1.28c-1.67-1.21-3.32-2.43-4.96-3.66-1.64-1.23-3.29-2.46-4.95-3.7-1.74-1.32-3.46-2.66-5.17-4.01-1.71-1.35-3.43-2.7-5.16-4.05-.2-.16-.42-.31-.63-.45-.22-.14-.51-.21-.87-.19.05.61.09,1.2.11,1.78.03.58.05,1.16.08,1.74.13,2.57.25,5.11.37,7.62.11,2.51.21,5.03.29,7.57.04.99.01,1.99-.09,2.98-.1.99-.17,1.98-.21,2.97-.41,1.09-.96,1.84-1.66,2.27-.7.42-1.41.67-2.13.74-.83.08-1.7.01-2.62-.22-.1-.09-.18-.2-.24-.31-.06-.11-.12-.24-.19-.39-.5-1.04-.84-2.11-1.02-3.21s-.3-2.23-.35-3.39c-.08-1.41-.14-2.79-.17-4.14-.03-1.35-.09-2.71-.18-4.1-.1-2.1-.2-4.19-.31-6.27-.11-2.08-.22-4.16-.32-6.23-.12-2.43-.21-4.89-.26-7.4-.06-1.87-.12-3.74-.17-5.6-.05-1.86-.1-3.72-.13-5.6-.04-1.29-.08-2.58-.12-3.84-.04-1.27-.07-2.56-.07-3.88,0-1.04.02-2.07.1-3.08.07-1.01.24-2.02.5-3.04.26-.94.85-1.36,1.77-1.27,1.08.16,1.98.63,2.7,1.42.64.72,1.11,1.52,1.41,2.38.3.87.56,1.75.77,2.65.33,1.38.57,2.75.71,4.13s.25,2.76.33,4.17c.13,2.07.24,4.13.34,6.17.1,2.04.2,4.1.3,6.17,0,.22.01.44.02.66,0,.22.02.46.05.71.64-.08,1.24-.13,1.81-.15.56-.03,1.13-.09,1.69-.2,1.76-.29,3.49-.61,5.2-.95,1.71-.34,3.44-.67,5.21-.99,1.29-.26,2.57-.51,3.84-.76,1.27-.25,2.55-.5,3.84-.76.87-.16,1.55.11,2.06.82-.24.53-.57.94-.97,1.24s-.84.56-1.33.75c-.63.24-1.26.45-1.9.64-.64.18-1.28.36-1.92.51-1.52.43-3.06.85-4.59,1.26-1.54.41-3.07.82-4.59,1.22-.37.1-.74.19-1.12.26-.38.07-.79.16-1.24.25.22.27.38.45.48.54,1.3.98,2.59,1.94,3.86,2.89,1.27.95,2.54,1.92,3.81,2.93,1.15.88,2.26,1.76,3.35,2.63,1.08.88,2.18,1.77,3.3,2.67.82.63,1.62,1.26,2.41,1.9s1.59,1.29,2.4,1.95c.33.25.64.53.93.83.29.3.57.6.84.91.52.55.9,1.21,1.12,2.01Z"/>
  </g>
  <g>
    <path class="cls-2" d="m169.03,252.89l7.41,67.41s21.18,16.24,140.47-19.06c119.29-35.29,142.94-34.94,142.94-34.94l-63.88-54.35s-42.71,16.59-116.82,32.47c-73.67,15.79-111.53,7.06-111.53,7.06"/>
    <g>
      <path class="cls-4" d="m263.25,280.09c-.98-.08-2.13-.05-3.45.07l6.45,23.21,10.78,1.28-6.54-23.55c-3.44-.58-5.85-.92-7.23-1.02Z"/>
      <path class="cls-4" d="m386.4,252.68l-3.82-19.57c-.87-.68-1.45-1.12-1.74-1.3-.21-.15-.92-.51-2.13-1.08l-12.69,25.44,20.39-3.49Z"/>
      <path class="cls-4" d="m371.84,240.41c-2.07-.71-3.86-.94-5.38-.68-2.1.36-3.64,1.64-4.64,3.84-.18.45-.4.69-.65.74-.16.03-.32-.02-.49-.15-.17-.13-.27-.3-.31-.53-.13-.78.08-1.94.64-3.47.56-1.53,1.54-2.85,2.95-3.98s2.97-1.84,4.69-2.13c1.77-.3,3.85-.22,6.25.25l2.13-4.26c-3.45-1.02-6.76-1.26-9.92-.72-3.36.58-6.4,1.86-9.1,3.84s-4.59,4.27-5.66,6.86c-1.07,2.59-1.39,5.11-.97,7.56.89,5.18,4.48,9.29,10.76,12.32l9.72-19.49Z"/>
      <polygon class="cls-4" points="216.9 270.22 213.04 273.28 214.51 294.5 228.85 283.44 216.9 270.22"/>
      <path class="cls-4" d="m191.35,290.43c1.67.66,3.07,1.33,4.19,2.03,1.12.69,2.72,1.87,4.8,3.53l-.82-11.9-8.16,6.35Z"/>
      <path class="cls-4" d="m206.97,278.11l2.3,33.27c1.55.13,3.11.37,4.68.73l-2.59-37.48-4.39,3.49Z"/>
      <path class="cls-4" d="m493.85,210.61c-13.93-2.25-49.73-6.69-92.79-1.67-22.32,2.6-34.42,6.95-48.42,11.98-21.38,7.69-45.62,16.4-114.1,22.57-12.58,1.13-24.15,1.63-34.75,1.63-39.11,0-65.16-6.76-81.13-13.23-18.26-7.4-26.87-15.57-29.49-18.43.13,1.07.22,2.14.26,3.22.52,14.96.46,38.74.31,57.05,3.18,5.2,12.4,18.54,29.61,30.48,20.13,13.97,55.62,28.8,110.36,20.16,54.16-8.55,96.52-21.13,130.55-31.24,33.5-9.95,59.96-17.81,84.35-18.27,30.43-.58,62.1,7.05,81.89,12.97-12-11-26.44-22.42-32.67-48.73-2.79-11.78-3.72-21.07-3.97-28.5Zm-254.32,109.67c-1.95-1.05-3.38-2.21-4.29-3.48-.65-.85-1.94-3.81-3.86-8.88-1.03-2.68-2.27-4.95-3.71-6.8s-2.93-3.22-4.45-4.11c-1.53-.88-3.56-1.65-6.11-2.28l-2.45,1.89,1.1,15.97c2.39.61,4.92,1.53,7.61,2.76l3.74-3.79,1.32,1.26-9.42,8.89c-3.76-1.59-7-2.67-9.73-3.22-2.72-.56-5.44-.74-8.15-.56-3.4.24-6.64,1.02-9.71,2.37-1.62.73-3.4,1.96-5.34,3.69l-1.12-.85c2.31-3.43,4.71-6,7.18-7.71,2.47-1.71,5.56-2.97,9.27-3.77l-.12-1.73c-.17-2.48-.63-4.49-1.38-6.02-.75-1.53-2.03-3.1-3.85-4.71-1.81-1.61-3.7-2.9-5.64-3.87-1.25-.61-3-1.18-5.23-1.72l-.11-1.57c2.02-.91,4.48-2.49,7.37-4.75l6.9-5.34c-.23-3.3-.62-5.65-1.18-7.04-.56-1.39-1.54-2.51-2.94-3.37s-2.92-1.23-4.56-1.11c-1,.07-1.9.29-2.7.65-.8.36-1.77,1.01-2.92,1.94l-1.33-.83c1.86-2.19,3.56-3.7,5.11-4.54s3.5-1.34,5.86-1.5c2.64-.18,4.87.19,6.69,1.12,1.82.93,3.24,2.27,4.23,4.03.59,1.07.99,2.63,1.21,4.7l14.83-11.79,14.41,15.92-11.77,9.18c3.66,1.87,6.65,4.18,8.96,6.91,2.31,2.73,4.22,6.34,5.71,10.81.69,2.16,1.35,3.74,1.99,4.72.43.64,1.2,1.38,2.32,2.22l3.61-3.51,1.42,1.29-8.76,8.55Zm37.93-12.15c-1.06,1.07-2.03,2.3-2.9,3.68-4.19-1.18-7.58-1.86-10.17-2.05-1.96-.15-4.08.04-6.36.57l-.58-.64c.72-1.05,1.11-1.93,1.18-2.65.11-.94-.11-2.41-.67-4.41l-5.66-20.36c4.11-2.77,7.4-5.97,9.85-9.61,4.16,1.35,9.03,1.94,14.61,1.77l7.71,27.74c-3.29,2.54-5.64,4.52-7.03,5.95Zm27.88-6.29c-2.87-1.14-4.96-1.83-6.27-2.07-1.31-.25-2.95-.31-4.91-.18l-.28-.8c.53-.65.87-1.36,1.03-2.12.15-.76.15-1.59,0-2.49-.05-.31-.53-1.77-1.43-4.39l-9.15-25.91c-.78-2.2-1.4-3.7-1.87-4.5-.47-.8-1.1-1.5-1.89-2.11-.79-.61-1.95-1.18-3.51-1.72l.32-.93c2.43-.15,4.86.43,7.29,1.75,1.14-2.55,2.31-4.43,3.53-5.65,1.21-1.22,2.76-2.2,4.64-2.95l.33.94c-1.56,1.67-2.48,3.36-2.76,5.08-.28,1.72.1,4.04,1.13,6.97l11.39,32.26,5.23,1.62,1.14-1.87,1.37.99-5.33,8.09Zm20.82-7.46c-2.87-1.13-4.96-1.82-6.27-2.06-1.31-.24-2.95-.3-4.91-.18l-.28-.8c.53-.65.87-1.36,1.02-2.12.15-.76.15-1.59,0-2.49-.06-.31-.53-1.77-1.44-4.39l-9.18-25.9c-.78-2.2-1.41-3.7-1.88-4.5-.47-.8-1.1-1.5-1.89-2.11-.79-.61-1.95-1.18-3.51-1.72l.32-.93c2.43-.15,4.86.43,7.3,1.74,1.13-2.55,2.31-4.44,3.52-5.66,1.21-1.22,2.76-2.2,4.64-2.95l.33.94c-1.56,1.67-2.48,3.36-2.75,5.08-.28,1.72.1,4.04,1.14,6.97l11.43,32.25,5.23,1.62,1.13-1.87,1.37.98-5.32,8.09Zm72.52-19.95l-2.02,2.33c-2.16-.59-3.79-1.59-4.9-2.99-1.11-1.4-2.01-3.78-2.69-7.15l-12.76,13.63c-9.1-3.99-15.13-5.72-18.09-5.22-.73.13-1.31.46-1.74,1-.32.39-.43.89-.33,1.5.11.66.48,1.34,1.09,2.04.81.95,1.25,1.6,1.31,1.92.08.48-.02.92-.32,1.32-.3.4-.7.65-1.2.73-.63.11-1.18-.06-1.65-.5-.67-.59-1.1-1.43-1.29-2.51-.21-1.21-.09-2.63.34-4.26.44-1.62,1.19-3.44,2.25-5.44.21-.43.4-.82.58-1.19l4.15-8.33c-4.14-2.13-7.16-4.33-9.08-6.61-1.91-2.27-3.14-4.98-3.67-8.12-.62-3.64-.27-7.18,1.05-10.61s3.7-6.36,7.12-8.8c3.42-2.43,7.11-3.99,11.05-4.67,6.04-1.04,12.23.06,18.57,3.3,1.12-1.68,2.23-3.08,3.33-4.22,1.1-1.14,2.56-2.33,4.37-3.58l1.04,1.64c-1.67,1.19-2.87,2.3-3.59,3.32-.72,1.02-1.17,2.1-1.34,3.23-.17,1.14-.07,2.77.29,4.89.12.68.29,1.59.51,2.72l5.5,28.23c.58,3.1,1.26,5.08,2.03,5.94.55.61,1.12.86,1.72.76.73-.13,1.74-1.05,3.03-2.78l1.36,1.23-6.02,7.23Z"/>
      <polygon class="cls-4" points="362.9 262.4 360.26 267.7 380.95 272.71 388.74 264.56 387.5 258.19 362.9 262.4"/>
      <path class="cls-4" d="m93.31,211.61c.32.41,32.94,40.68,145.11,30.57,68.31-6.16,92.47-14.84,113.78-22.5,14.08-5.06,26.24-9.43,48.71-12.05,42.95-5.01,78.71-.64,92.9,1.64-.33-14.04,1.71-21.03-2.53-25.26-6.54-6.54-77.52-2.8-77.52-2.8l-6.54,12.14-10.27-10.27s-143.83,28.02-197.06,29.89-57.9-7.47-57.9-7.47l-2.8,18.68-3.74-24.28s-24.28,5.6-43.9-10.27c-10.98-8.89-18.74-15.73-23.44-20.02,7.97,8.04,22.06,24.44,24.84,42.31l.35-.27Z"/>
      <path class="cls-4" d="m62.61,164.39s1.81,1.81,5.51,5.19c-3.27-3.3-5.51-5.19-5.51-5.19Z"/>
      <path class="cls-4" d="m541.71,299.81c-2.58-3.57-5.67-6.76-9.01-9.91-19.43-5.98-52.43-14.3-84.08-13.71-24.21.46-50.59,8.29-84,18.21-34.07,10.12-76.47,22.71-130.72,31.28-11.35,1.79-21.89,2.58-31.64,2.58-37.66,0-63.59-11.78-79.75-23.01-15.67-10.89-24.8-22.95-28.82-29.09-.12,13.62-.29,23.64-.29,23.64,0,0,30.82,27.08,62.57,36.42,31.75,9.34,48.56,8.41,48.56,8.41l10.27-14.01,5.6,16.81s61.64-3.74,103.67-17.74c42.03-14.01,66.31-30.82,128.88-27.08s65.38-.93,81.25,19.61c15.88,20.55,23.35,59.77,23.35,59.77,0,0-3.74-65.38-15.88-82.19Z"/>
    </g>
  </g>
</svg>